{"title":"Star Trek Into Darkness 2013 HDRip AAC x264-SSDD","uid":8832586,"size":446012301,"categoryP":"video","categoryS":"movies","magnet":"?xt=urn:btih:a5ee9c789fcbf618d9f319285bd804119c899ba4&amp;dn=Star+Trek+Into+Darkness+2013+HDRip+AAC+x264-SSDD+&amp;tr=udp%3A%2F%2Ftracker.openbittorrent.com%3A80&amp;tr=udp%3A%2F%2Fopen.demonii.com%3A1337&amp;tr=udp%3A%2F%2Ftracker.coppersurfer.tk%3A6969&amp;tr=udp%3A%2F%2Fexodus.desync.com%3A6969","seeders":2,"leechers":0,"uploader":"R0thschild","files":2,"time":1377027146,"description":"Public Hash - Largest Bittorrent Community \nCrystal Clean files - Fast Speed! No Virus! No Fake! Enjoy!\n &lt;a href=&quot;\nhttp://www.imdb.com/title/tt1408101/&quot; rel=&quot;nofollow&quot; target=&quot;_NEW&quot;&gt;\nhttp://www.imdb.com/title/tt1408101/&lt;/a&gt;\n\n\nGeneral\nComplete name                            : Star Trek Into Darkness 2013 HDRip AAC x264-SSDD.mp4\nFormat                                   : MPEG-4\nFormat profile                           : Base Media\nCodec ID                                 : isom\nFile size                                : 425 MiB\nDuration                                 : 2h 5mn\nOverall bit rate mode                    : Variable\nOverall bit rate                         : 473 Kbps\n\nVideo\nID                                       : 1\nFormat                                   : AVC\nFormat/Info                              : Advanced Video Codec\nFormat profile                           : &lt;a class=&quot;__cf_email__&quot; href=&quot;/cdn-cgi/l/email-protection&quot; data-cfemail=&quot;da97bbb3b49a96e8f4eb&quot;&gt;[email&amp;#160;protected]&lt;/a&gt;&lt;script cf-hash='f9e31' type=&quot;text/javascript&quot;&gt;\n/* &lt;![CDATA[ */!function(){try{var t=&quot;currentScript&quot;in document?document.currentScript:function(){for(var t=document.getElementsByTagName(&quot;script&quot;),e=t.length;e--;)if(t[e].getAttribute(&quot;cf-hash&quot;))return t[e]}();if(t&amp;&amp;t.previousSibling){var e,r,n,i,c=t.previousSibling,a=c.getAttribute(&quot;data-cfemail&quot;);if(a){for(e=&quot;&quot;,r=parseInt(a.substr(0,2),16),n=2;a.length-n;n+=2)i=parseInt(a.substr(n,2),16)^r,e+=String.fromCharCode(i);e=document.createTextNode(e),c.parentNode.replaceChild(e,c)}}}catch(u){}}();/* ]]&gt; */&lt;/script&gt;\nFormat settings, CABAC                   : Yes\nFormat settings, ReFrames                : 4 frames\nCodec ID                                 : avc1\nCodec ID/Info                            : Advanced Video Coding\nDuration                                 : 2h 5mn\nBit rate                                 : 434 Kbps\nMaximum bit rate                         : 1 476 Kbps\nWidth                                    : 608 pixels\nHeight                                   : 256 pixels\nDisplay aspect ratio                     : 2.40:1\nFrame rate mode                          : Constant\nFrame rate                               : 23.976 fps\nColor space                              : YUV\nChroma subsampling                       : 4:2:0\nBit depth                                : 8 bits\nScan type                                : Progressive\nBits/(Pixel*Frame)                       : 0.116\nStream size                              : 390 MiB (92%)\nWriting library                          : x264 core 133 r2334 a3ac64b\n\nAudio\nID                                       : 2\nFormat                                   : AAC\nFormat/Info                              : Advanced Audio Codec\nFormat profile                           : LC\nCodec ID                                 : 40\nDuration                                 : 2h 5mn\nBit rate mode                            : Variable\nBit rate                                 : 35.0 Kbps\nMaximum bit rate                         : 46.5 Kbps\nChannel(s)                               : 2 channels\nChannel positions                        : Front: L R\nSampling rate                            : 48.0 KHz\nCompression mode                         : Lossy\nStream size                              : 31.5 MiB (7%)","torrent":{"xt":"urn:btih:a5ee9c789fcbf618d9f319285bd804119c899ba4","amp;dn":"Star+Trek+Into+Darkness+2013+HDRip+AAC+x264-SSDD+","amp;tr":["udp%3A%2F%2Ftracker.openbittorrent.com%3A80","udp%3A%2F%2Fopen.demonii.com%3A1337","udp%3A%2F%2Ftracker.coppersurfer.tk%3A6969","udp%3A%2F%2Fexodus.desync.com%3A6969"],"infoHash":"a5ee9c789fcbf618d9f319285bd804119c899ba4","infoHashBuffer":{"type":"Buffer","data":[165,238,156,120,159,203,246,24,217,243,25,40,91,216,4,17,156,137,155,164]},"announce":[],"urlList":[]}}